<svg xmlns="http://www.w3.org/2000/svg" width="89" height="38" viewBox="0 0 89 38">
    <defs>
        <style>
            .prefix__cls-2{fill:#fff}
        </style>
    </defs>
    <g id="prefix__LOGO-agriskadmin-header">
        <path id="prefix__ag" fill="#0db5b5" d="M13.293-33.272c-.254-.666-.571-.856-1.333-.856h-1.683a1.145 1.145 0 0 0-1.333.888L1.007-12.627c-.254.7 0 1.047.73 1.047H3.2c1.3 0 1.714-.19 1.968-.951l1.492-4.091h8.762l1.46 4.091c.254.761.667.951 1.968.951h1.65c.73 0 .984-.349.73-1.047zm1.016 13.383h-6.54l2.444-6.723a11.58 11.58 0 0 0 .7-3.837h.222l.032.539a20.129 20.129 0 0 0 .73 3.33zm6.508 1.649c0 4.091 2.159 6.374 6.6 6.374a15 15 0 0 0 3.809-.571v1.586c0 2.283-1.111 3.425-3.365 3.425a3.591 3.591 0 0 1-3.3-1.617 1.058 1.058 0 0 0-1.619-.381l-1.206.666a.948.948 0 0 0-.381 1.586q1.809 3.044 6.571 3.044c4.794 0 6.984-2.569 6.984-6.913v-14.715c0-1.015-.159-1.269-1.175-1.744a13.864 13.864 0 0 0-5.746-.983c-4.794 0-7.174 2.22-7.174 6.66zm10.127-6.533a.429.429 0 0 1 .286.381v8.721a14.819 14.819 0 0 1-3.27.444c-2.254 0-3.46-1.11-3.46-3.108V-21.7c0-2.283 1.238-3.425 3.746-3.425a10.66 10.66 0 0 1 2.697.352z" transform="translate(-.911 35.128)"/>
        <path id="prefix__risk" d="M4.416-34.566c-.789 0-1.1.286-1.1 1.081v20.408c0 .795.315 1.081 1.1 1.081h1.8c.789 0 1.072-.286 1.072-1.081v-7.5h2.333c2.145 0 2.9.445 3.754 2.225l2.65 5.4c.379.795.757.954 2.145.954H20c.725 0 .915-.35.536-1.081l-3.47-6.707a3.935 3.935 0 0 0-1.009-1.367c2.65-.89 4.164-3.147 4.164-6.421 0-4.355-2.681-6.993-7.1-6.993zM15.2-25.157a3.416 3.416 0 0 1-2.46.858H7.286v-6.548h5.457a3.439 3.439 0 0 1 2.46.826 3.343 3.343 0 0 1 .852 2.448 3.216 3.216 0 0 1-.855 2.416zm8.485-9.473c-1.483 0-1.924.477-1.924 1.907v.286c0 1.494.5 1.939 1.924 1.939h.221c1.483 0 1.924-.445 1.924-1.939v-.286c0-1.43-.442-1.907-1.924-1.907zm-.757 6.167c-.725 0-.946.223-.946.954v14.527c0 .731.221.985.946.985h1.735c.725 0 .978-.254.978-.985v-14.527c0-.731-.252-.954-.978-.954zm4.574 4.641a4.589 4.589 0 0 0 1.325 3.5 4.461 4.461 0 0 0 1.483.858 12.23 12.23 0 0 0 3.564.763c2.807.286 3.785.636 3.785 2.034 0 1.24-1.1 1.875-3.344 1.875-1.893 0-3.091-.572-3.564-1.748-.284-.731-.662-.858-1.293-.6l-1.419.445a.905.905 0 0 0-.631 1.335c.978 2.575 3.344 3.846 7.034 3.846 4.384 0 6.813-2.1 6.813-5.309 0-3.56-2.145-4.7-6.435-5.118-2.744-.254-3.691-.572-3.691-1.971 0-1.144.978-1.717 2.965-1.717 1.672 0 2.807.54 3.407 1.653.41.668.6.731 1.325.445l1.419-.572a.923.923 0 0 0 .5-1.43c-1.1-2.257-3.375-3.4-6.75-3.4-4.25-.007-6.489 1.964-6.489 5.111zm25.8 5.086a5.463 5.463 0 0 0-2.271-2.638l4.769-5.945c.6-.763.379-1.144-.631-1.144h-1.546c-1.167 0-1.419.064-1.893.731l-4.29 5.626H45.8V-34.5c0-.763-.221-1.017-1.009-1.017h-1.608c-.789 0-1.041.254-1.041 1.017v21.489c0 .763.252 1.017 1.041 1.017h1.609c.789 0 1.009-.254 1.009-1.017v-5.658h1.893a2.513 2.513 0 0 1 2.523 1.558l1.956 4.228c.347.763.568.89 1.672.89h1.609c.915 0 1.072-.318.6-1.176z" class="prefix__cls-2" transform="translate(32.688 35.52)"/>
        <path id="prefix__admin" d="M4.3-11.247a.374.374 0 0 0-.431-.286H3.33a.371.371 0 0 0-.431.3L.335-4.349c-.082.233 0 .35.236.35h.472c.421 0 .554-.064.636-.318l.481-1.367h2.831l.472 1.367c.082.254.215.318.636.318h.533c.236 0 .318-.117.236-.35zm.328 4.472H2.519l.79-2.246a3.988 3.988 0 0 0 .226-1.279h.072l.01.18a6.925 6.925 0 0 0 .236 1.113zM7.2-5.98c0 1.43.738 2.14 2.226 2.14a5.337 5.337 0 0 0 1.918-.339c.328-.138.41-.244.41-.583v-6.75c0-.244-.082-.328-.318-.328h-.564c-.236 0-.308.085-.308.328v2a6.709 6.709 0 0 0-1.224-.135A1.942 1.942 0 0 0 7.2-7.432zm3.36.78a.124.124 0 0 1-.082.117 3.549 3.549 0 0 1-.944.117c-.769 0-1.149-.35-1.149-1.06V-7.4c0-.752.39-1.123 1.179-1.123a4.528 4.528 0 0 1 .995.138zm5.877-4.1a2.055 2.055 0 0 0-1.272-.35 4.668 4.668 0 0 0-1.867.36.535.535 0 0 0-.4.6v4.355c0 .244.082.328.318.328h.564c.236 0 .308-.085.308-.328v-3.934a.128.128 0 0 1 .082-.131 2.567 2.567 0 0 1 .821-.127A.9.9 0 0 1 16-7.5v3.168c0 .244.082.328.318.328h.554c.236 0 .318-.085.318-.328v-3.206a2.4 2.4 0 0 0-.113-.795 2.981 2.981 0 0 1 .995-.191c.667 0 .995.339.995 1.028v3.168c0 .244.082.328.318.328h.564c.236 0 .308-.085.308-.328v-3.21c0-1.409-.667-2.109-2.01-2.109a4.655 4.655 0 0 0-1.81.347zm5.518-2.246c-.482 0-.626.159-.626.636v.1c0 .5.164.646.626.646h.072c.482 0 .626-.148.626-.646v-.1c0-.477-.144-.636-.626-.636zm-.246 2.056c-.236 0-.308.074-.308.318v4.842c0 .244.072.328.308.328h.564c.236 0 .318-.085.318-.328v-4.84c0-.244-.082-.318-.318-.318zm2.441.2a.527.527 0 0 0-.4.6v4.355c0 .244.082.328.318.328h.564c.236 0 .308-.085.308-.328V-8.28a.1.1 0 0 1 .072-.106A3.506 3.506 0 0 1 26-8.523c.749 0 1.118.35 1.118 1.038v3.158c0 .244.072.328.308.328h.564c.236 0 .318-.085.318-.328v-3.19a1.9 1.9 0 0 0-2.133-2.13 5.194 5.194 0 0 0-2.025.361z" class="prefix__cls-2" transform="translate(59.696 41.84)"/>
    </g>
</svg>
